<?xml version="1.0" encoding="utf-8"?>
<!-- Generator: Adobe Illustrator 17.0.0, SVG Export Plug-In . SVG Version: 6.00 Build 0)  -->
<!DOCTYPE svg PUBLIC "-//W3C//DTD SVG 1.1//EN" "http://www.w3.org/Graphics/SVG/1.1/DTD/svg11.dtd">
<svg version="1.1" id="Layer_1" xmlns="http://www.w3.org/2000/svg" xmlns:xlink="http://www.w3.org/1999/xlink" x="0px" y="0px"
	 width="612px" height="792px" viewBox="0 0 612 792" enable-background="new 0 0 612 792" xml:space="preserve">
<g>
	<defs>
		<rect id="SVGID_1_" x="37.791" y="106.584" width="524.673" height="564.935"/>
	</defs>
	<clipPath id="SVGID_2_">
		<use xlink:href="#SVGID_1_"  overflow="visible"/>
	</clipPath>
	<path clip-path="url(#SVGID_2_)" fill="#9ED7CC" d="M299.144,619.466c141.629,0,256.441-114.812,256.441-256.441
		S440.773,106.583,299.144,106.583S42.702,221.395,42.702,363.024S157.514,619.466,299.144,619.466"/>
	<path clip-path="url(#SVGID_2_)" fill="#FFFFFF" d="M299.144,576.725c118.024,0,213.701-95.677,213.701-213.701
		s-95.677-213.701-213.701-213.701S85.443,245,85.443,363.024S181.119,576.725,299.144,576.725"/>
	<circle clip-path="url(#SVGID_2_)" fill="none" stroke="#73C9B9" stroke-width="1.5" cx="299.144" cy="363.024" r="213.701"/>
	<path clip-path="url(#SVGID_2_)" fill="#73C9B9" d="M455.538,348.889h-5.437v-33.982h5.437V348.889z M441.425,344.407
		c-0.69-0.248-1.397-0.502-2.118-0.789v-23.431c0.723-0.289,1.43-0.546,2.123-0.797c1.799-0.65,3.537-1.291,5.15-2.323v29.662
		C444.965,345.698,443.226,345.06,441.425,344.407 M431.455,335.286c-0.412-2.358-1.084-4.629-2.001-6.771h6.332v6.771H431.455z
		 M428.409,446.247H185.407V342.409h0.022v-2.598c0.439-14.771,12.587-26.651,27.465-26.651H400.92
		c15.158,0,27.489,12.328,27.489,27.484V446.247z M416.313,454.874h-9.389v-5.106h9.389V454.874z M206.889,454.874h-9.383v-5.106
		h9.383V454.874z M178.024,328.515h3.884v6.771h-3.884V328.515z M174.503,343.618c-0.721,0.287-1.427,0.54-2.118,0.789
		c-1.801,0.652-3.54,1.291-5.156,2.323v-29.662c1.616,1.032,3.352,1.673,5.15,2.323c0.693,0.251,1.403,0.508,2.123,0.797V343.618z
		 M163.709,348.889h-5.437v-33.982h5.437V348.889z M164.76,297.459h-18.016l-0.112,0.003c-0.079,0.005-0.156,0.014-0.251,0.027
		c-2.009-0.033-3.633-1.676-3.633-3.69v-18.93c0-2.036,1.657-3.695,3.693-3.695s3.693,1.659,3.693,3.695v18.442h14.626
		c13.685,0,24.82,11.13,24.82,24.814v2.11c-1.61,1.837-3.008,3.865-4.151,6.043v-8.152
		C185.428,306.727,176.157,297.459,164.76,297.459 M196.032,283.605v31.037c-1.018,0.663-2.001,1.381-2.931,2.156v-33.193H196.032z
		 M414.26,292.598H199.555v-3.676H414.26V292.598z M398.305,285.401H215.508 M401.826,296.118h12.435v16.539
		c-3.785-1.81-7.997-2.868-12.435-2.997V296.118z M211.987,309.661c-4.438,0.128-8.649,1.187-12.435,2.997v-16.539h12.435V309.661z
		 M297.847,309.639h-6.567l4.948-4.282h1.618V309.639z M322.533,309.639h-6.564v-4.282h1.613L322.533,309.639z M327.915,309.639
		l-9.02-7.803h-6.447v7.803h-11.081v-7.803h-6.449l-9.02,7.803h-70.39v-13.521h182.798v13.521H327.915z M420.712,283.605v33.191
		c-0.931-0.775-1.913-1.49-2.931-2.153v-31.037H420.712z M211.987,285.401h-12.435v-5.317h-9.973v24.378
		c-4.834-8.739-14.146-14.673-24.82-14.673h-11.105v-14.921c0-3.979-3.237-7.216-7.213-7.216s-7.213,3.237-7.213,7.216v18.93
		c0,3.977,3.237,7.211,7.213,7.211c0.139,0,0.27-0.014,0.39-0.03h17.929c9.454,0,17.148,7.691,17.148,17.145v6.87h-3.884v-7.129
		l-1.051-0.464c-1.195-0.524-2.312-0.928-3.395-1.318c-2.579-0.936-4.651-1.703-6.348-3.6v-1.097h-12.478v41.023h12.478v-1.097
		c1.698-1.897,3.769-2.661,6.351-3.592c1.081-0.39,2.197-0.794,3.39-1.315l1.053-0.461v-7.137h3.884v1.004
		c-0.008,0.278-0.022,0.554-0.022,0.832v109.124h12.099v8.627h16.425v-8.627h192.994v8.627h16.43v-8.627h12.096V340.644
		c0-0.617-0.025-1.228-0.06-1.837h3.916v7.137l1.053,0.461c1.193,0.521,2.309,0.925,3.39,1.315c2.582,0.931,4.653,1.695,6.351,3.592
		v1.097h12.478v-41.023H446.58v1.097c-1.698,1.897-3.769,2.664-6.348,3.6c-1.081,0.39-2.2,0.794-3.392,1.318l-1.053,0.464v7.129
		h-8.114c-0.996-1.698-2.148-3.289-3.439-4.76v-40.15h-9.973v5.317h-12.435"/>
	<path clip-path="url(#SVGID_2_)" fill="#73C9B9" d="M416.311,366.5H197.507v-25.857c0-8.483,6.902-15.385,15.388-15.385h188.027
		c8.485,0,15.39,6.902,15.39,15.385V366.5z M416.311,411.262c0,8.485-6.905,15.39-15.39,15.39h-35.117v-5.685
		c0-3.261-2.653-5.914-5.912-5.914H253.923c-3.261,0-5.914,2.653-5.914,5.914v5.685h-35.115c-8.485,0-15.388-6.905-15.388-15.39
		v-41.242h218.805V411.262z M251.532,426.653v-5.685c0-1.321,1.073-2.394,2.391-2.394h105.969c1.318,0,2.391,1.073,2.391,2.394
		v5.685H251.532z M400.921,321.737H212.894c-10.426,0-18.908,8.48-18.908,18.906V366.5v3.521v41.242
		c0,10.428,8.483,18.911,18.908,18.911h35.115h117.795h35.117c10.428,0,18.911-8.483,18.911-18.911v-41.242V366.5v-25.857
		C419.832,330.217,411.349,321.737,400.921,321.737"/>
	<path clip-path="url(#SVGID_2_)" fill="#73C9B9" d="M205.748,376.077h9.621c1.318,0,2.394,1.073,2.394,2.391
		c0,1.321-1.075,2.394-2.394,2.394h-9.621c-1.318,0-2.391-1.073-2.391-2.394C203.357,377.15,204.43,376.077,205.748,376.077
		 M205.748,384.382h9.621c3.261,0,5.914-2.653,5.914-5.914s-2.653-5.912-5.914-5.912h-9.621c-3.261,0-5.912,2.65-5.912,5.912
		S202.486,384.382,205.748,384.382"/>
	<path clip-path="url(#SVGID_2_)" fill="#73C9B9" d="M229.838,376.077h9.618c1.318,0,2.391,1.073,2.391,2.391
		c0,1.321-1.073,2.394-2.391,2.394h-9.618c-1.321,0-2.399-1.073-2.399-2.394C227.439,377.15,228.517,376.077,229.838,376.077
		 M229.838,384.382h9.618c3.259,0,5.912-2.653,5.912-5.914s-2.653-5.912-5.912-5.912h-9.618c-3.264,0-5.92,2.65-5.92,5.912
		S226.574,384.382,229.838,384.382"/>
	<path clip-path="url(#SVGID_2_)" fill="#73C9B9" d="M253.924,376.077h9.618c1.321,0,2.394,1.073,2.394,2.391
		c0,1.321-1.073,2.394-2.394,2.394h-9.618c-1.318,0-2.394-1.073-2.394-2.394C251.53,377.15,252.605,376.077,253.924,376.077
		 M253.924,384.382h9.618c3.261,0,5.914-2.653,5.914-5.914s-2.653-5.912-5.914-5.912h-9.618c-3.261,0-5.914,2.65-5.914,5.912
		S250.662,384.382,253.924,384.382"/>
	<path clip-path="url(#SVGID_2_)" fill="#73C9B9" d="M278.008,376.077h9.621c1.321,0,2.399,1.073,2.399,2.391
		c0,1.321-1.078,2.394-2.399,2.394h-9.621c-1.318,0-2.388-1.073-2.388-2.394C275.62,377.15,276.69,376.077,278.008,376.077
		 M278.008,384.382h9.621c3.264,0,5.92-2.653,5.92-5.914s-2.656-5.912-5.92-5.912h-9.621c-3.259,0-5.909,2.65-5.909,5.912
		S274.749,384.382,278.008,384.382"/>
	<path clip-path="url(#SVGID_2_)" fill="#73C9B9" d="M302.1,376.077h9.618c1.318,0,2.391,1.073,2.391,2.391
		c0,1.321-1.073,2.394-2.391,2.394H302.1c-1.321,0-2.396-1.073-2.396-2.394C299.704,377.15,300.78,376.077,302.1,376.077
		 M302.1,384.382h9.618c3.259,0,5.912-2.653,5.912-5.914s-2.653-5.912-5.912-5.912H302.1c-3.261,0-5.917,2.65-5.917,5.912
		S298.839,384.382,302.1,384.382"/>
	<path clip-path="url(#SVGID_2_)" fill="#73C9B9" d="M326.188,376.077h9.615c1.321,0,2.396,1.073,2.396,2.391
		c0,1.321-1.075,2.394-2.396,2.394h-9.615c-1.321,0-2.396-1.073-2.396-2.394C323.792,377.15,324.867,376.077,326.188,376.077
		 M326.188,384.382h9.615c3.261,0,5.917-2.653,5.917-5.914s-2.656-5.912-5.917-5.912h-9.615c-3.264,0-5.917,2.65-5.917,5.912
		S322.924,384.382,326.188,384.382"/>
	<path clip-path="url(#SVGID_2_)" fill="#73C9B9" d="M350.27,376.077h9.621c1.321,0,2.394,1.073,2.394,2.391
		c0,1.321-1.073,2.394-2.394,2.394h-9.621c-1.318,0-2.391-1.073-2.391-2.394C347.879,377.15,348.952,376.077,350.27,376.077
		 M350.27,384.382h9.621c3.261,0,5.914-2.653,5.914-5.914s-2.653-5.912-5.914-5.912h-9.621c-3.261,0-5.912,2.65-5.912,5.912
		S347.009,384.382,350.27,384.382"/>
	<path clip-path="url(#SVGID_2_)" fill="#73C9B9" d="M374.357,376.077h9.621c1.321,0,2.396,1.073,2.396,2.391
		c0,1.321-1.075,2.394-2.396,2.394h-9.621c-1.318,0-2.391-1.073-2.391-2.394C371.967,377.15,373.039,376.077,374.357,376.077
		 M374.357,384.382h9.621c3.261,0,5.917-2.653,5.917-5.914s-2.656-5.912-5.917-5.912h-9.621c-3.259,0-5.912,2.65-5.912,5.912
		S371.099,384.382,374.357,384.382"/>
	<path clip-path="url(#SVGID_2_)" fill="#73C9B9" d="M398.446,376.077h9.618c1.321,0,2.394,1.073,2.394,2.391
		c0,1.321-1.073,2.394-2.394,2.394h-9.618c-1.318,0-2.391-1.073-2.391-2.394C396.055,377.15,397.127,376.077,398.446,376.077
		 M398.446,384.382h9.618c3.261,0,5.914-2.653,5.914-5.914s-2.653-5.912-5.914-5.912h-9.618c-3.261,0-5.912,2.65-5.912,5.912
		S395.184,384.382,398.446,384.382"/>
	<path clip-path="url(#SVGID_2_)" fill="#73C9B9" d="M215.289,392.536c0-1.318,1.073-2.391,2.394-2.391h9.621
		c1.318,0,2.391,1.073,2.391,2.391c0,1.321-1.073,2.396-2.391,2.396h-9.621C216.361,394.932,215.289,393.857,215.289,392.536
		 M233.214,392.536c0-3.261-2.653-5.912-5.912-5.912h-9.621c-3.261,0-5.914,2.65-5.914,5.912s2.653,5.917,5.914,5.917h9.621
		C230.562,398.453,233.214,395.797,233.214,392.536"/>
	<path clip-path="url(#SVGID_2_)" fill="#73C9B9" d="M239.376,392.536c0-1.318,1.075-2.391,2.396-2.391h9.618
		c1.315,0,2.388,1.073,2.388,2.391c0,1.321-1.073,2.396-2.388,2.396h-9.618C240.451,394.932,239.376,393.857,239.376,392.536
		 M257.299,392.536c0-3.261-2.65-5.912-5.909-5.912h-9.618c-3.264,0-5.917,2.65-5.917,5.912s2.653,5.917,5.917,5.917h9.618
		C254.649,398.453,257.299,395.797,257.299,392.536"/>
	<path clip-path="url(#SVGID_2_)" fill="#73C9B9" d="M263.463,392.537c0-1.318,1.075-2.394,2.394-2.394h9.618
		c1.321,0,2.394,1.075,2.394,2.394c0,1.321-1.073,2.396-2.394,2.396h-9.618C264.538,394.933,263.463,393.858,263.463,392.537
		 M275.475,398.454c3.261,0,5.914-2.656,5.914-5.917c0-3.261-2.653-5.914-5.914-5.914h-9.618c-3.261,0-5.914,2.653-5.914,5.914
		c0,3.261,2.653,5.917,5.914,5.917H275.475z"/>
	<path clip-path="url(#SVGID_2_)" fill="#73C9B9" d="M287.553,392.537c0-1.318,1.073-2.394,2.388-2.394h9.618
		c1.324,0,2.399,1.075,2.399,2.394c0,1.321-1.075,2.396-2.399,2.396h-9.618C288.626,394.933,287.553,393.858,287.553,392.537
		 M299.559,398.454c3.264,0,5.92-2.656,5.92-5.917c0-3.261-2.656-5.914-5.92-5.914h-9.618c-3.256,0-5.909,2.653-5.909,5.914
		c0,3.261,2.653,5.917,5.909,5.917H299.559z"/>
	<path clip-path="url(#SVGID_2_)" fill="#73C9B9" d="M311.64,392.537c0-1.318,1.073-2.394,2.391-2.394h9.621
		c1.318,0,2.391,1.075,2.391,2.394c0,1.321-1.073,2.396-2.391,2.396h-9.621C312.712,394.933,311.64,393.858,311.64,392.537
		 M323.651,398.454c3.261,0,5.912-2.656,5.912-5.917c0-3.261-2.65-5.914-5.912-5.914h-9.621c-3.259,0-5.912,2.653-5.912,5.914
		c0,3.261,2.653,5.917,5.912,5.917H323.651z"/>
	<path clip-path="url(#SVGID_2_)" fill="#73C9B9" d="M335.723,392.537c0-1.318,1.075-2.394,2.396-2.394h9.618
		c1.318,0,2.394,1.075,2.394,2.394c0,1.321-1.075,2.396-2.394,2.396h-9.618C336.798,394.933,335.723,393.858,335.723,392.537
		 M347.737,398.454c3.261,0,5.914-2.656,5.914-5.917c0-3.261-2.653-5.914-5.914-5.914h-9.618c-3.261,0-5.917,2.653-5.917,5.914
		c0,3.261,2.656,5.917,5.917,5.917H347.737z"/>
	<path clip-path="url(#SVGID_2_)" fill="#73C9B9" d="M359.815,392.537c0-1.318,1.073-2.394,2.391-2.394h9.618
		c1.318,0,2.394,1.075,2.394,2.394c0,1.321-1.075,2.396-2.394,2.396h-9.618C360.887,394.933,359.815,393.858,359.815,392.537
		 M371.824,398.454c3.261,0,5.914-2.656,5.914-5.917c0-3.261-2.653-5.914-5.914-5.914h-9.618c-3.259,0-5.912,2.653-5.912,5.914
		c0,3.261,2.653,5.917,5.912,5.917H371.824z"/>
	<path clip-path="url(#SVGID_2_)" fill="#73C9B9" d="M383.905,392.537c0-1.318,1.07-2.394,2.385-2.394h9.621
		c1.321,0,2.394,1.075,2.394,2.394c0,1.321-1.073,2.396-2.394,2.396h-9.621C384.974,394.933,383.905,393.858,383.905,392.537
		 M395.911,398.454c3.261,0,5.914-2.656,5.914-5.917c0-3.261-2.653-5.914-5.914-5.914h-9.621c-3.259,0-5.906,2.653-5.906,5.914
		c0,3.261,2.647,5.917,5.906,5.917H395.911z"/>
	<path clip-path="url(#SVGID_2_)" fill="#73C9B9" d="M205.748,404.212h9.621c1.318,0,2.394,1.073,2.394,2.391
		c0,1.321-1.075,2.394-2.394,2.394h-9.621c-1.318,0-2.391-1.073-2.391-2.394C203.357,405.285,204.43,404.212,205.748,404.212
		 M205.748,412.517h9.621c3.261,0,5.914-2.653,5.914-5.914c0-3.259-2.653-5.912-5.914-5.912h-9.621
		c-3.261,0-5.912,2.653-5.912,5.912C199.836,409.865,202.486,412.517,205.748,412.517"/>
	<path clip-path="url(#SVGID_2_)" fill="#73C9B9" d="M239.456,408.997h-9.618c-1.321,0-2.399-1.073-2.399-2.394
		c0-1.318,1.078-2.391,2.399-2.391h9.618c1.318,0,2.391,1.073,2.391,2.391C241.847,407.924,240.775,408.997,239.456,408.997
		 M239.456,400.691h-9.618c-3.264,0-5.92,2.653-5.92,5.912c0,3.261,2.656,5.914,5.92,5.914h9.618c3.259,0,5.912-2.653,5.912-5.914
		C245.368,403.344,242.715,400.691,239.456,400.691"/>
	<path clip-path="url(#SVGID_2_)" fill="#73C9B9" d="M263.542,408.997h-9.618c-1.321,0-2.394-1.073-2.394-2.394
		c0-1.318,1.073-2.391,2.394-2.391h9.618c1.318,0,2.394,1.073,2.394,2.391C265.936,407.924,264.86,408.997,263.542,408.997
		 M263.542,400.691h-9.618c-3.261,0-5.914,2.653-5.914,5.912c0,3.261,2.653,5.914,5.914,5.914h9.618
		c3.261,0,5.914-2.653,5.914-5.914C269.456,403.344,266.803,400.691,263.542,400.691"/>
	<path clip-path="url(#SVGID_2_)" fill="#73C9B9" d="M287.627,408.997h-9.621c-1.315,0-2.388-1.073-2.388-2.394
		c0-1.318,1.073-2.391,2.388-2.391h9.621c1.324,0,2.399,1.073,2.399,2.391C290.026,407.924,288.951,408.997,287.627,408.997
		 M287.627,400.691h-9.621c-3.256,0-5.909,2.653-5.909,5.912c0,3.261,2.653,5.914,5.909,5.914h9.621c3.264,0,5.92-2.653,5.92-5.914
		C293.547,403.344,290.891,400.691,287.627,400.691"/>
	<path clip-path="url(#SVGID_2_)" fill="#73C9B9" d="M311.717,408.997h-9.618c-1.321,0-2.396-1.073-2.396-2.394
		c0-1.318,1.075-2.391,2.396-2.391h9.618c1.318,0,2.394,1.073,2.394,2.391C314.111,407.924,313.035,408.997,311.717,408.997
		 M311.717,400.691h-9.618c-3.261,0-5.917,2.653-5.917,5.912c0,3.261,2.656,5.914,5.917,5.914h9.618
		c3.261,0,5.914-2.653,5.914-5.914C317.631,403.344,314.979,400.691,311.717,400.691"/>
	<path clip-path="url(#SVGID_2_)" fill="#73C9B9" d="M335.804,408.997h-9.615c-1.321,0-2.396-1.073-2.396-2.394
		c0-1.318,1.075-2.391,2.396-2.391h9.615c1.321,0,2.394,1.073,2.394,2.391C338.197,407.924,337.125,408.997,335.804,408.997
		 M335.804,400.691h-9.615c-3.264,0-5.917,2.653-5.917,5.912c0,3.261,2.653,5.914,5.917,5.914h9.615
		c3.261,0,5.914-2.653,5.914-5.914C341.718,403.344,339.065,400.691,335.804,400.691"/>
	<path clip-path="url(#SVGID_2_)" fill="#73C9B9" d="M359.891,408.997h-9.621c-1.321,0-2.394-1.073-2.394-2.394
		c0-1.318,1.073-2.391,2.394-2.391h9.621c1.318,0,2.391,1.073,2.391,2.391C362.282,407.924,361.209,408.997,359.891,408.997
		 M359.891,400.691h-9.621c-3.261,0-5.914,2.653-5.914,5.912c0,3.261,2.653,5.914,5.914,5.914h9.621
		c3.261,0,5.912-2.653,5.912-5.914C365.802,403.344,363.152,400.691,359.891,400.691"/>
	<path clip-path="url(#SVGID_2_)" fill="#73C9B9" d="M383.978,408.997h-9.621c-1.318,0-2.391-1.073-2.391-2.394
		c0-1.318,1.073-2.391,2.391-2.391h9.621c1.321,0,2.394,1.073,2.394,2.391C386.372,407.924,385.299,408.997,383.978,408.997
		 M383.978,400.691h-9.621c-3.259,0-5.912,2.653-5.912,5.912c0,3.261,2.653,5.914,5.912,5.914h9.621
		c3.261,0,5.914-2.653,5.914-5.914C389.893,403.344,387.24,400.691,383.978,400.691"/>
	<path clip-path="url(#SVGID_2_)" fill="#73C9B9" d="M408.064,408.997h-9.618c-1.318,0-2.391-1.073-2.391-2.394
		c0-1.318,1.073-2.391,2.391-2.391h9.618c1.318,0,2.394,1.073,2.394,2.391C410.458,407.924,409.382,408.997,408.064,408.997
		 M408.064,400.691h-9.618c-3.262,0-5.912,2.653-5.912,5.912c0,3.261,2.65,5.914,5.912,5.914h9.618c3.261,0,5.914-2.653,5.914-5.914
		C413.978,403.344,411.325,400.691,408.064,400.691"/>
	<path clip-path="url(#SVGID_2_)" fill="#73C9B9" d="M321.214,336.301H292.6c-1.07,0-1.943-0.871-1.943-1.943
		s0.873-1.946,1.943-1.946h28.614c1.07,0,1.943,0.873,1.943,1.946S322.283,336.301,321.214,336.301 M321.214,328.891H292.6
		c-3.013,0-5.464,2.454-5.464,5.467c0,3.013,2.451,5.464,5.464,5.464h28.614c3.013,0,5.464-2.451,5.464-5.464
		C326.677,331.344,324.227,328.891,321.214,328.891"/>
</g>
<rect x="88.272" y="555.984" fill="#73C9B9" width="423.712" height="112.806"/>
<g>
	<defs>
		<rect id="SVGID_3_" x="37.791" y="106.584" width="524.673" height="564.935"/>
	</defs>
	<clipPath id="SVGID_4_">
		<use xlink:href="#SVGID_3_"  overflow="visible"/>
	</clipPath>
	
		<rect x="88.272" y="555.984" clip-path="url(#SVGID_4_)" fill="none" stroke="#FFFFFF" stroke-width="2" width="423.712" height="112.806"/>
</g>
<text transform="matrix(1 0 0 1 124.5586 628.5948)"><tspan x="0" y="0" fill="#FFFFFF" font-family="'BellGothicStd-Bold'" font-size="32.7511" letter-spacing="16">COP</tspan><tspan x="110.993" y="0" fill="#FFFFFF" font-family="'BellGothicStd-Bold'" font-size="32.7511">Y</tspan></text>
<text transform="matrix(1 0 0 1 273.7715 628.5948)" fill="#FFFFFF" font-family="'Wingdings'" font-size="49.1267"></text>
<text transform="matrix(1 0 0 1 343.0234 628.5948)"><tspan x="0" y="0" fill="#FFFFFF" font-family="'BellGothicStd-Bold'" font-size="32.7511" letter-spacing="16">TH</tspan><tspan x="76.407" y="0" fill="#FFFFFF" font-family="'BellGothicStd-Bold'" font-size="32.7511" letter-spacing="14">A</tspan><tspan x="112.663" y="0" fill="#FFFFFF" font-family="'BellGothicStd-Bold'" font-size="32.7511">T</tspan></text>
</svg>
