<?xml version="1.0" encoding="utf-8"?>
<!-- Generator: Adobe Illustrator 17.0.0, SVG Export Plug-In . SVG Version: 6.00 Build 0)  -->
<!DOCTYPE svg PUBLIC "-//W3C//DTD SVG 1.1//EN" "http://www.w3.org/Graphics/SVG/1.1/DTD/svg11.dtd">
<svg version="1.1" id="Layer_1" xmlns="http://www.w3.org/2000/svg" xmlns:xlink="http://www.w3.org/1999/xlink" x="0px" y="0px"
	 width="640px" height="480px" viewBox="0 0 640 480" enable-background="new 0 0 640 480" xml:space="preserve">
<g>
	<defs>
		<rect id="SVGID_1_" x="119.992" y="39.659" width="382.927" height="382.927"/>
	</defs>
	<clipPath id="SVGID_2_">
		<use xlink:href="#SVGID_1_"  overflow="visible"/>
	</clipPath>
	<path clip-path="url(#SVGID_2_)" fill="#FFFFFF" d="M207.653,300.657c0,0,40.244,24.007,91.994,16.526
		c25.5-3.682,48.846-16.608,61.872-31.913c38.751-42.659,31.75-95.693,31.75-95.693l22.795-21.167l-21.167,3.256l14.654-19.538
		l-27.318,9.769c0,0-18.109-18.281-37.241-18.281c-17.983,0-32.229,12.374-37.204,27.028c-4.975,14.654,0.814,27.073,0.814,27.073
		s-32.899-0.145-49.66-8.385c-17.295-8.512-41.519-33.948-41.519-33.948s-6.187,9.769-5.047,22.098
		c0.507,5.427,3.003,14.211,6.838,20.841c3.835,6.63,11.235,14.048,11.235,14.048l-23.609-4.885c0,0,5.536,21.538,13.84,29.308
		c8.304,7.77,22.795,11.397,22.795,11.397l-19.538,6.513c0,0,6.676,10.791,14.654,16.282c7.978,5.491,27.679,13.026,27.679,13.026
		s-11.235,11.117-22.795,13.84C231.913,300.576,207.653,300.657,207.653,300.657"/>
	<path clip-path="url(#SVGID_2_)" fill="none" stroke="#FFFFFF" d="M311.453,418.063c103.246,0,186.936-83.699,186.936-186.936
		c0-103.246-83.69-186.936-186.936-186.936s-186.936,83.69-186.936,186.936C124.517,334.364,208.207,418.063,311.453,418.063z"/>
</g>
</svg>
